<?xml version="1.0" encoding="UTF-8" standalone="no"?>
<svg
   xmlns:dc="http://purl.org/dc/elements/1.1/"
   xmlns:cc="http://creativecommons.org/ns#"
   xmlns:rdf="http://www.w3.org/1999/02/22-rdf-syntax-ns#"
   xmlns:svg="http://www.w3.org/2000/svg"
   xmlns="http://www.w3.org/2000/svg"
   xmlns:sodipodi="http://sodipodi.sourceforge.net/DTD/sodipodi-0.dtd"
   xmlns:inkscape="http://www.inkscape.org/namespaces/inkscape"
   inkscape:version="1.0 (4035a4fb49, 2020-05-01)"
   sodipodi:docname="pros-cons-logo.svg"
   id="SVGRoot"
   version="1.1"
   viewBox="0 0 200 75"
   height="75px"
   width="200px">
  <sodipodi:namedview
     inkscape:current-layer="SVGRoot"
     inkscape:window-maximized="1"
     inkscape:window-y="-8"
     inkscape:window-x="-8"
     inkscape:cy="37.5"
     inkscape:cx="63.298379"
     inkscape:zoom="5.245"
     showgrid="false"
     id="namedview886"
     inkscape:window-height="1017"
     inkscape:window-width="1920"
     inkscape:pageshadow="2"
     inkscape:pageopacity="0"
     guidetolerance="10"
     gridtolerance="10"
     objecttolerance="10"
     borderopacity="1"
     bordercolor="#666666"
     pagecolor="#ffffff" />
  <defs
     id="defs100" />
  <metadata
     id="metadata103">
    <rdf:RDF>
      <cc:Work
         rdf:about="">
        <dc:format>image/svg+xml</dc:format>
        <dc:type
           rdf:resource="http://purl.org/dc/dcmitype/StillImage" />
        <dc:title />
      </cc:Work>
    </rdf:RDF>
  </metadata>
  <g
     id="layer1">
    <g
       aria-label="pros|cons"
       transform="scale(0.96545576,1.0357802)"
       id="text20"
       style="font-style:normal;font-weight:normal;font-size:47.1414px;line-height:1.25;font-family:sans-serif;letter-spacing:0px;fill:#000000;fill-opacity:1;stroke:none;stroke-width:0.245528">
      <path
         d="M 8.1090144,45.768952 H 8.0169413 V 59.349726 H 0.74317072 v -34.4123 H 8.0169413 v 3.544812 h 0.092073 q 2.6931366,-4.120269 7.5730076,-4.120269 4.580634,0 7.066607,3.153502 2.50899,3.130483 2.50899,8.539775 0,5.892675 -2.923319,9.460505 -2.900301,3.567831 -7.734136,3.567831 -4.258378,0 -6.4911496,-3.31463 z M 7.90185,36.101282 v 1.887498 q 0,2.439936 1.2890227,3.982159 1.2890223,1.542224 3.3836843,1.542224 2.485972,0 3.84405,-1.910516 1.381095,-1.933534 1.381095,-5.455328 0,-6.214931 -4.833834,-6.214931 -2.232772,0 -3.659904,1.703352 -1.404114,1.680333 -1.404114,4.465542 z"
         style="fill:#78bc61;fill-opacity:1"
         id="path199" />
      <path
         d="m 45.398598,31.49763 q -1.312041,-0.713566 -3.061429,-0.713566 -2.370881,0 -3.70594,1.749388 -1.335059,1.726369 -1.335059,4.718743 v 11.25593 H 30.022399 V 24.937426 h 7.273771 v 4.373469 h 0.09207 q 1.726369,-4.787798 6.21493,-4.787798 1.150913,0 1.795425,0.276219 z"
         style="fill:#78bc61;fill-opacity:1"
         id="path201" />
      <path
         d="m 60.038212,49.083582 q -5.892675,0 -9.276359,-3.291612 -3.360666,-3.314629 -3.360666,-8.977121 0,-5.846639 3.498775,-9.13825 3.498776,-3.31463 9.460506,-3.31463 5.869657,0 9.207304,3.31463 3.337648,3.291611 3.337648,8.723921 0,5.869656 -3.452739,9.276359 -3.429721,3.406703 -9.414469,3.406703 z m 0.184146,-19.151194 q -2.578045,0 -4.005177,1.772406 -1.427132,1.772407 -1.427132,5.017981 0,6.790388 5.478346,6.790388 5.225145,0 5.225145,-6.974534 0,-6.606241 -5.271182,-6.606241 z"
         style="fill:#78bc61;fill-opacity:1"
         id="path203" />
      <path
         d="m 76.081944,47.886632 v -5.892675 q 1.795424,1.081859 3.56783,1.611279 1.795425,0.52942 3.383685,0.52942 1.933534,0 3.03841,-0.52942 1.127895,-0.52942 1.127895,-1.611279 0,-0.690548 -0.506402,-1.150913 -0.506401,-0.460365 -1.31204,-0.805639 -0.782621,-0.345274 -1.72637,-0.621493 -0.943749,-0.276219 -1.818443,-0.621493 -1.404114,-0.52942 -2.485972,-1.127895 -1.05884,-0.621493 -1.795424,-1.427132 -0.713566,-0.805639 -1.104877,-1.864479 -0.368292,-1.05884 -0.368292,-2.508991 0,-1.97957 0.851676,-3.406702 0.874694,-1.427133 2.301826,-2.324845 1.45015,-0.92073 3.291611,-1.335059 1.864479,-0.437347 3.867068,-0.437347 1.565242,0 3.17652,0.253201 1.611278,0.230183 3.17652,0.690548 v 5.616456 q -1.381096,-0.80564 -2.969356,-1.19695 -1.565241,-0.414329 -3.084447,-0.414329 -0.713566,0 -1.358077,0.13811 -0.621493,0.115091 -1.104877,0.368292 -0.483383,0.230183 -0.759602,0.621493 -0.276219,0.368292 -0.276219,0.851676 0,0.644511 0.414328,1.104876 0.414329,0.460366 1.081859,0.805639 0.667529,0.322256 1.473168,0.598475 0.828658,0.253201 1.634297,0.52942 1.45015,0.506402 2.624082,1.104877 1.173931,0.598475 2.002589,1.404114 0.851675,0.805639 1.289022,1.887497 0.460365,1.081858 0.460365,2.578045 0,2.094662 -0.92073,3.590849 -0.897712,1.473169 -2.416918,2.416918 -1.496187,0.92073 -3.475757,1.335059 -1.956552,0.437347 -4.074232,0.437347 -3.890086,0 -7.204716,-1.19695 z"
         style="fill:#78bc61;fill-opacity:1"
         id="path205" />
      <path
         d="m 102.64501,59.602927 h -3.4067 V 12.461528 h 3.4067 z"
         style="font-style:normal;font-variant:normal;font-weight:normal;font-stretch:normal;font-size:47.1414px;font-family:'Microsoft New Tai Lue';-inkscape-font-specification:'Microsoft New Tai Lue';stroke-width:0.245528;fill:#EFE9E7;fill-opacity:1"
         id="path207" />
      <path
         d="m 127.52775,47.65645 q -2.46295,1.427132 -7.11264,1.427132 -5.43231,0 -8.79298,-3.291612 -3.36066,-3.291611 -3.36066,-8.493738 0,-6.007766 3.59084,-9.460505 3.61387,-3.475758 9.64466,-3.475758 4.1663,0 6.03078,1.104877 v 6.168894 q -2.27881,-1.703352 -5.08704,-1.703352 -3.13048,0 -4.97194,1.841461 -1.81844,1.818443 -1.81844,5.041 0,3.130483 1.74939,4.925907 1.74938,1.772407 4.81081,1.772407 2.71616,0 5.31722,-1.703352 z"
         style="fill:#ff6666;fill-opacity:1"
         id="path209" />
      <path
         d="m 143.54847,49.083582 q -5.89267,0 -9.27636,-3.291612 -3.36067,-3.314629 -3.36067,-8.977121 0,-5.846639 3.49878,-9.13825 3.49878,-3.31463 9.46051,-3.31463 5.86965,0 9.2073,3.31463 3.33765,3.291611 3.33765,8.723921 0,5.869656 -3.45274,9.276359 -3.42972,3.406703 -9.41447,3.406703 z m 0.18415,-19.151194 q -2.57805,0 -4.00518,1.772406 -1.42713,1.772407 -1.42713,5.017981 0,6.790388 5.47834,6.790388 5.22515,0 5.22515,-6.974534 0,-6.606241 -5.27118,-6.606241 z"
         style="fill:#ff6666;fill-opacity:1"
         id="path211" />
      <path
         d="m 183.89948,48.508125 h -7.25075 v -13.09739 q 0,-5.478347 -3.9131,-5.478347 -1.8875,0 -3.10747,1.450151 -1.21997,1.45015 -1.21997,3.682922 v 13.442664 h -7.27377 V 24.937426 h 7.27377 v 3.728958 h 0.0921 q 2.60107,-4.304415 7.57301,-4.304415 7.82621,0 7.82621,9.713706 z"
         style="fill:#ff6666;fill-opacity:1"
         id="path213" />
      <path
         d="m 188.13483,47.886632 v -5.892675 q 1.79543,1.081859 3.56783,1.611279 1.79543,0.52942 3.38369,0.52942 1.93353,0 3.03841,-0.52942 1.12789,-0.52942 1.12789,-1.611279 0,-0.690548 -0.5064,-1.150913 -0.5064,-0.460365 -1.31204,-0.805639 -0.78262,-0.345274 -1.72637,-0.621493 -0.94375,-0.276219 -1.81844,-0.621493 -1.40412,-0.52942 -2.48598,-1.127895 -1.05884,-0.621493 -1.79542,-1.427132 -0.71357,-0.805639 -1.10488,-1.864479 -0.36829,-1.05884 -0.36829,-2.508991 0,-1.97957 0.85168,-3.406702 0.87469,-1.427133 2.30182,-2.324845 1.45015,-0.92073 3.29161,-1.335059 1.86448,-0.437347 3.86707,-0.437347 1.56524,0 3.17652,0.253201 1.61128,0.230183 3.17652,0.690548 v 5.616456 q -1.38109,-0.80564 -2.96935,-1.19695 -1.56525,-0.414329 -3.08445,-0.414329 -0.71357,0 -1.35808,0.13811 -0.62149,0.115091 -1.10487,0.368292 -0.48339,0.230183 -0.75961,0.621493 -0.27622,0.368292 -0.27622,0.851676 0,0.644511 0.41433,1.104876 0.41433,0.460366 1.08186,0.805639 0.66753,0.322256 1.47317,0.598475 0.82866,0.253201 1.6343,0.52942 1.45015,0.506402 2.62408,1.104877 1.17393,0.598475 2.00259,1.404114 0.85167,0.805639 1.28902,1.887497 0.46036,1.081858 0.46036,2.578045 0,2.094662 -0.92073,3.590849 -0.89771,1.473169 -2.41691,2.416918 -1.49619,0.92073 -3.47576,1.335059 -1.95655,0.437347 -4.07423,0.437347 -3.89009,0 -7.20472,-1.19695 z"
         style="fill:#ff6666;fill-opacity:1"
         id="path215" />
    </g>
  </g>
</svg>
